<?xml version="1.0" encoding="utf-8"?>
<!-- Generator: Adobe Illustrator 22.0.0, SVG Export Plug-In . SVG Version: 6.00 Build 0)  -->
<svg version="1.1" id="Capa_1" xmlns="http://www.w3.org/2000/svg" xmlns:xlink="http://www.w3.org/1999/xlink" x="0px" y="0px"
	 viewBox="0 0 1280 1024" style="enable-background:new 0 0 1280 1024;" xml:space="preserve">
<style type="text/css">
	.st0{fill:#FFFFFF;}
</style>
<g>
	<g>
		<path class="st0" d="M690.9,681.7c0,0.1,0,0.2,0,0.3c0-0.2,0-0.3,0-0.5c0-0.2,0-0.3,0-0.5c0-0.2,0-0.4,0-0.7
			c0.1-0.8,0.2-1.7,0.3-2.5c0.1-0.4,0.1-0.7,0.2-1.1c0,0,0-0.1,0-0.1c0-0.1,0-0.2,0.1-0.3c0,0.1,0,0.2-0.1,0.3
			C691.1,678.4,690.9,680,690.9,681.7z"/>
		<path class="st0" d="M691.5,689.3c0,0.1,0,0.2,0.1,0.3c0-0.2-0.1-0.4-0.1-0.5c0-0.2-0.1-0.4-0.1-0.6c0-0.1-0.1-0.3-0.1-0.4
			c0-0.2-0.1-0.4-0.1-0.7c0,0,0-0.1,0-0.1c0-0.1,0-0.3-0.1-0.4c0,0,0,0,0-0.1v0c0,0,0,0,0-0.1c0-0.2,0-0.5-0.1-0.7
			c0-0.1,0-0.1,0-0.2c0-0.1,0-0.2,0-0.3c0-0.2,0-0.5,0-0.7c0,0,0,0,0,0c0-0.2,0-0.4,0-0.6c0-0.3,0-0.7,0-1c0-0.3,0-0.6,0-1
			c0,0.3,0,0.6,0,1c0,0.3,0,0.7,0,1v0c0,0.1,0,0.3,0,0.4c0,0.4,0,0.7,0.1,1.1c0,0.4,0.1,0.8,0.1,1.3c0,0.4,0.1,0.8,0.2,1.2
			C691.3,688.4,691.4,688.9,691.5,689.3z"/>
		<path class="st0" d="M691.7,690.4c0,0.2,0.1,0.4,0.2,0.6c0-0.2-0.1-0.3-0.1-0.5C691.7,690.5,691.7,690.5,691.7,690.4
			c-0.1-0.3-0.2-0.6-0.2-0.9c0,0,0,0,0,0C691.6,689.9,691.6,690.1,691.7,690.4z"/>
		<path class="st0" d="M691.9,674.8c-0.2,0.5-0.3,1.1-0.4,1.6c0-0.1,0-0.2,0.1-0.3c0-0.2,0.1-0.4,0.1-0.6
			C691.8,675.3,691.8,675.1,691.9,674.8C691.9,674.8,691.9,674.8,691.9,674.8z"/>
		<path class="st0" d="M692,674.4C692,674.4,692,674.5,692,674.4C692,674.5,692,674.5,692,674.4C692,674.4,692,674.4,692,674.4
			C692,674.4,692,674.4,692,674.4z"/>
		<path class="st0" d="M692.3,673.6c0,0.2-0.1,0.3-0.1,0.5C692.2,673.9,692.2,673.8,692.3,673.6
			C692.2,673.6,692.2,673.6,692.3,673.6z"/>
		<path class="st0" d="M692.3,673.5c0,0,0,0.1,0,0.2v0C692.3,673.6,692.3,673.5,692.3,673.5z"/>
		<path class="st0" d="M692.4,692.7c0,0.1,0,0.1,0.1,0.2C692.4,692.9,692.4,692.8,692.4,692.7c0-0.1-0.1-0.2-0.1-0.3c0,0,0,0,0,0
			c-0.1-0.2-0.1-0.4-0.2-0.5c0,0,0-0.1,0-0.1c0,0,0,0,0-0.1c-0.1-0.2-0.1-0.4-0.2-0.6c0,0.2,0.1,0.3,0.1,0.5
			C692.1,692,692.2,692.4,692.4,692.7z"/>
		<path class="st0" d="M693.2,694.9c-0.2-0.4-0.4-0.9-0.5-1.3c0,0,0,0.1,0,0.1C692.8,694.1,693,694.5,693.2,694.9z"/>
		<path class="st0" d="M692.9,671.7C692.9,671.7,692.9,671.7,692.9,671.7C692.9,671.7,692.9,671.7,692.9,671.7
			C692.9,671.7,692.9,671.7,692.9,671.7z"/>
		<path class="st0" d="M693,671.6C693,671.6,693,671.6,693,671.6c0,0,0-0.1,0.1-0.2C693,671.4,693,671.5,693,671.6z"/>
		<path class="st0" d="M694.1,697c0.1,0.3,0.3,0.5,0.4,0.8c0,0,0,0,0-0.1c0-0.1-0.1-0.1-0.1-0.2c-0.1-0.1-0.1-0.3-0.2-0.4
			C694.1,697.1,694.1,697,694.1,697c-0.2-0.3-0.3-0.6-0.4-0.9C693.8,696.4,694,696.7,694.1,697z"/>
		<path class="st0" d="M695.2,667.1c-0.1,0.1-0.2,0.3-0.3,0.5C695,667.4,695.1,667.3,695.2,667.1c0-0.1,0.1-0.1,0.1-0.2
			C695.3,667,695.2,667.1,695.2,667.1z"/>
		<path class="st0" d="M695.7,666.3c-0.1,0.2-0.3,0.4-0.4,0.6c0,0,0,0,0,0C695.5,666.7,695.6,666.5,695.7,666.3z"/>
		<path class="st0" d="M695.8,666.2c0,0-0.1,0.1-0.1,0.1C695.8,666.3,695.8,666.3,695.8,666.2C695.8,666.2,695.8,666.2,695.8,666.2
			C695.8,666.2,695.8,666.2,695.8,666.2c0.1-0.2,0.2-0.3,0.3-0.5C696,665.9,695.9,666.1,695.8,666.2z"/>
		<path class="st0" d="M696.4,665.4c-0.1,0.1-0.2,0.3-0.3,0.4C696.2,665.6,696.3,665.5,696.4,665.4
			C696.5,665.3,696.5,665.3,696.4,665.4C696.5,665.3,696.5,665.3,696.4,665.4z"/>
		<path class="st0" d="M696.6,665.2c0,0,0,0.1-0.1,0.1C696.5,665.3,696.5,665.3,696.6,665.2C696.5,665.3,696.5,665.2,696.6,665.2z"
			/>
		<path class="st0" d="M697.8,702.3c0.1,0.1,0.2,0.3,0.4,0.4C698,702.5,697.8,702.3,697.8,702.3c-0.2-0.2-0.3-0.3-0.4-0.4
			c-0.2-0.2-0.4-0.4-0.5-0.6c-0.1-0.1-0.3-0.3-0.4-0.5c-0.1-0.2-0.2-0.3-0.3-0.5c-0.1-0.1-0.2-0.2-0.2-0.3c0,0,0,0,0,0
			c-0.1-0.1-0.2-0.3-0.3-0.4c-0.1-0.2-0.2-0.3-0.3-0.5c0,0,0-0.1-0.1-0.1c-0.1-0.2-0.2-0.3-0.3-0.5c-0.1-0.1-0.2-0.3-0.2-0.4
			c0.2,0.3,0.3,0.5,0.5,0.7c0.2,0.3,0.4,0.6,0.6,0.9c0.2,0.3,0.4,0.6,0.6,0.9c0.2,0.3,0.4,0.5,0.6,0.8c0.1,0.1,0.1,0.2,0.2,0.2
			C697.4,701.9,697.6,702.1,697.8,702.3z"/>
		<path class="st0" d="M698.5,703c0.3,0.2,0.5,0.5,0.7,0.7c-0.2-0.2-0.4-0.4-0.6-0.6C698.6,703.1,698.6,703.1,698.5,703z"/>
		<path class="st0" d="M700.8,661.1C700.8,661.1,700.8,661.1,700.8,661.1C700.8,661.1,700.9,661,700.8,661.1
			c0.1-0.1,0.2-0.1,0.2-0.2C701,661,700.9,661,700.8,661.1z"/>
		<path class="st0" d="M702.5,706c0.1,0,0.1,0.1,0.2,0.1C702.6,706.1,702.6,706,702.5,706c-0.1,0-0.2-0.1-0.3-0.2
			c-0.1,0-0.1-0.1-0.2-0.1c0,0,0,0,0,0c0,0,0,0-0.1,0c-0.1-0.1-0.3-0.2-0.4-0.2c-0.2-0.1-0.4-0.3-0.7-0.4c0.3,0.2,0.5,0.4,0.8,0.5
			c0,0,0.1,0.1,0.1,0.1C702,705.7,702.3,705.9,702.5,706z"/>
		<path class="st0" d="M708,707.8c0.3,0,0.5,0.1,0.8,0.1c-0.1,0-0.1,0-0.2,0C708.4,707.9,708.2,707.9,708,707.8c0,0-0.1,0-0.1,0h0
			c0,0,0,0,0,0c-0.2,0-0.4-0.1-0.7-0.1c-0.1,0-0.2,0-0.2-0.1c-0.3,0-0.5-0.1-0.7-0.2c0,0-0.1,0-0.1,0c-0.3-0.1-0.6-0.2-0.9-0.3
			c-0.2-0.1-0.4-0.1-0.6-0.2c0,0-0.1,0-0.1,0c0,0,0,0,0,0c-0.1,0-0.1,0-0.2-0.1c0,0,0,0,0,0c0,0,0,0,0,0c0,0,0.1,0,0.1,0
			c0,0,0.1,0,0.1,0C705.6,707.4,706.8,707.7,708,707.8z"/>
		<path class="st0" d="M709.9,708c0.3,0,0.6,0,0.9,0C710.5,708,710.2,708,709.9,708c-0.3,0-0.6,0-1,0c0,0-0.1,0-0.1,0c0,0,0,0-0.1,0
			C709.2,708,709.5,708,709.9,708z"/>
		<path class="st0" d="M710.8,707.9c1.1-0.1,2.3-0.3,3.3-0.6C713,707.7,711.9,707.9,710.8,707.9z"/>
		<path class="st0" d="M718.7,705.2C718.7,705.1,718.8,705.1,718.7,705.2C718.8,705.1,718.7,705.2,718.7,705.2
			c-0.2,0.2-0.5,0.3-0.7,0.5C718.2,705.5,718.5,705.3,718.7,705.2z"/>
		<path class="st0" d="M720.1,704.1c-0.2,0.2-0.4,0.3-0.6,0.5c0,0,0,0,0,0c-0.2,0.2-0.4,0.3-0.6,0.4h0c0.2-0.1,0.4-0.3,0.6-0.5
			C719.6,704.5,719.9,704.3,720.1,704.1z"/>
		<polygon class="st0" points="598.7,449.6 566.9,426.1 566.9,426.1 		"/>
		<polygon class="st0" points="598.7,449.6 560.5,449.6 560.5,449.6 598.7,449.6 		"/>
		<path class="st0" d="M560.6,704.7c0.2,0.2,0.4,0.3,0.6,0.5c0,0,0,0,0,0C561,705,560.8,704.8,560.6,704.7
			C560.6,704.7,560.6,704.6,560.6,704.7c-0.3-0.2-0.5-0.4-0.7-0.5C560.1,704.3,560.4,704.5,560.6,704.7z"/>
		<path class="st0" d="M561.3,705.2c0.2,0.2,0.5,0.3,0.7,0.5C561.8,705.5,561.5,705.3,561.3,705.2
			C561.3,705.2,561.2,705.1,561.3,705.2C561.2,705.1,561.3,705.1,561.3,705.2z"/>
		<path class="st0" d="M565.9,707.4c1.1,0.3,2.2,0.5,3.3,0.6C568.1,707.9,567,707.7,565.9,707.4z"/>
		<path class="st0" d="M571.1,707.9c0.9-0.1,1.8-0.2,2.6-0.4c0,0,0,0-0.1,0c-0.1,0-0.3,0.1-0.5,0.1c0,0,0,0,0,0
			c-0.1,0-0.2,0-0.2,0.1c-0.2,0-0.5,0.1-0.7,0.1c-0.2,0-0.4,0.1-0.7,0.1c-0.1,0-0.2,0-0.3,0c-0.1,0-0.2,0-0.3,0c-0.3,0-0.6,0-0.9,0
			s-0.6,0-0.9,0c0.3,0,0.6,0,0.9,0C570.4,708,570.7,708,571.1,707.9z"/>
		<path class="st0" d="M573.9,707.5C573.9,707.5,573.9,707.5,573.9,707.5C574,707.5,573.9,707.5,573.9,707.5c-0.1,0-0.1,0-0.1,0
			c0,0-0.1,0-0.1,0C573.8,707.5,573.8,707.5,573.9,707.5z"/>
		<path class="st0" d="M574.8,707.2C574.9,707.2,574.9,707.2,574.8,707.2C574.9,707.2,574.9,707.2,574.8,707.2c0,0-0.1,0-0.1,0
			c0,0-0.1,0-0.2,0c0,0,0,0,0,0c-0.1,0-0.3,0.1-0.4,0.1c0,0-0.1,0-0.1,0C574.3,707.4,574.6,707.3,574.8,707.2z"/>
		<path class="st0" d="M575.7,706.8c0.1,0,0.1,0,0.2-0.1c0,0,0,0,0,0c-0.2,0.1-0.5,0.2-0.7,0.3c0,0,0,0-0.1,0c0,0-0.1,0-0.1,0
			C575.2,707.1,575.5,707,575.7,706.8z"/>
		<path class="st0" d="M577.5,660c-0.6-0.3-1.1-0.6-1.8-0.8C576.3,659.4,576.9,659.7,577.5,660z"/>
		<path class="st0" d="M578.3,705.5c0.1,0,0.1-0.1,0.2-0.1C578.5,705.4,578.4,705.5,578.3,705.5c-0.1,0-0.2,0.1-0.2,0.1c0,0,0,0,0,0
			c0,0,0,0,0,0c-0.1,0-0.1,0.1-0.2,0.1c-0.1,0.1-0.2,0.1-0.3,0.2c0,0-0.1,0.1-0.2,0.1c0.1,0,0.1-0.1,0.2-0.1
			C577.8,705.8,578.1,705.7,578.3,705.5z"/>
		<path class="st0" d="M579.2,661.1C579.2,661.1,579.2,661.1,579.2,661.1C579.2,661.1,579.2,661.1,579.2,661.1
			c-0.1,0-0.2-0.1-0.2-0.2C579,661,579.1,661,579.2,661.1z"/>
		<path class="st0" d="M579.3,661.1c0.1,0.1,0.2,0.1,0.3,0.2C579.5,661.3,579.4,661.2,579.3,661.1
			C579.3,661.1,579.3,661.1,579.3,661.1z"/>
		<path class="st0" d="M579.8,661.5c0.1,0,0.1,0.1,0.2,0.2C579.9,661.7,579.9,661.6,579.8,661.5
			C579.8,661.6,579.8,661.6,579.8,661.5z"/>
		<path class="st0" d="M580.3,662C580.4,662,580.4,662,580.3,662C580.4,662,580.4,662,580.3,662C580.4,662,580.4,662,580.3,662
			L580.3,662z"/>
		<path class="st0" d="M580.7,703.7c0.1-0.1,0.3-0.2,0.4-0.4c0,0,0,0,0,0C581,703.5,580.9,703.6,580.7,703.7z"/>
		<path class="st0" d="M580.7,662.3c0.3,0.2,0.5,0.5,0.8,0.7c-0.4-0.3-0.7-0.7-1.1-1c0,0,0.1,0.1,0.1,0.1
			C580.6,662.2,580.7,662.3,580.7,662.3z"/>
		<path class="st0" d="M582.5,701.9c0.1-0.1,0.1-0.1,0.2-0.2C582.6,701.8,582.5,701.9,582.5,701.9C582.5,702,582.5,702,582.5,701.9z
			"/>
		<path class="st0" d="M582.9,701.5C582.9,701.5,582.9,701.5,582.9,701.5C582.9,701.5,582.9,701.5,582.9,701.5L582.9,701.5z"/>
		<path class="st0" d="M583.7,700.4C583.7,700.4,583.7,700.4,583.7,700.4c0,0-0.1,0.1-0.2,0.2C583.6,700.6,583.7,700.5,583.7,700.4z
			"/>
		<path class="st0" d="M584.1,699.9C584.1,699.9,584.1,699.9,584.1,699.9C584.1,699.9,584.1,699.9,584.1,699.9L584.1,699.9z"/>
		<path class="st0" d="M584.8,667.1c0.2,0.3,0.4,0.6,0.5,0.9c0,0,0,0,0,0C585.1,667.7,585,667.4,584.8,667.1z"/>
		<path class="st0" d="M586.5,670.4C586.5,670.4,586.5,670.4,586.5,670.4c0-0.1-0.1-0.2-0.1-0.3
			C586.4,670.2,586.5,670.3,586.5,670.4z"/>
		<path class="st0" d="M729,683c0,5.5-1.4,10.6-3.7,14.7C727.6,693.6,729,688.5,729,683c0-3.6-0.6-7.1-1.7-10.2
			C728.4,676,729,679.4,729,683z"/>
		<path class="st0" d="M552.7,672.9c-1.1,3.1-1.7,6.5-1.7,10.2c0,5.5,1.4,10.6,3.7,14.7c-2.3-4.1-3.7-9.2-3.7-14.7
			C551,679.4,551.6,676,552.7,672.9z"/>
		<polygon class="st0" points="713.1,426.1 681.3,449.6 713.1,426.1 		"/>
		<polygon class="st0" points="719.5,449.6 719.5,449.6 681.3,449.6 681.3,449.6 		"/>
		<polygon class="st0" points="598.7,449.6 566.9,426.1 566.9,426.1 		"/>
		<path class="st0" d="M575.7,659.2c0.6,0.2,1.2,0.5,1.8,0.8C576.9,659.7,576.3,659.4,575.7,659.2z"/>
		<path class="st0" d="M579.2,661.1C579.2,661.1,579.2,661.1,579.2,661.1C579.2,661.1,579.2,661.1,579.2,661.1
			c-0.1,0-0.2-0.1-0.2-0.2C579,661,579.1,661,579.2,661.1z"/>
		<path class="st0" d="M579.3,661.1c0.1,0.1,0.2,0.1,0.3,0.2C579.5,661.3,579.4,661.2,579.3,661.1
			C579.3,661.1,579.3,661.1,579.3,661.1z"/>
		<path class="st0" d="M579.8,661.5c0.1,0,0.1,0.1,0.2,0.2C579.9,661.7,579.9,661.6,579.8,661.5
			C579.8,661.6,579.8,661.6,579.8,661.5z"/>
		<path class="st0" d="M580.3,662C580.4,662,580.4,662,580.3,662C580.4,662,580.4,662,580.3,662C580.4,662,580.4,662,580.3,662
			L580.3,662z"/>
		<path class="st0" d="M580.7,662.3c0.3,0.2,0.5,0.5,0.8,0.7c-0.4-0.3-0.7-0.7-1.1-1c0,0,0.1,0.1,0.1,0.1
			C580.6,662.2,580.7,662.3,580.7,662.3z"/>
		<path class="st0" d="M584.8,667.1c0.2,0.3,0.4,0.6,0.5,0.9c0,0,0,0,0,0C585.1,667.7,585,667.4,584.8,667.1z"/>
		<path class="st0" d="M586.4,670.1c0,0.1,0.1,0.2,0.1,0.3c0,0,0,0,0,0c-0.1-0.2-0.2-0.4-0.3-0.6C586.3,669.9,586.3,670,586.4,670.1
			z"/>
		<path class="st0" d="M639.9,563.6L639.9,563.6L639.9,563.6L639.9,563.6z M639.9,563.6L639.9,563.6L639.9,563.6L639.9,563.6z
			 M582.9,701.5L582.9,701.5C582.9,701.5,582.9,701.5,582.9,701.5C582.9,701.5,582.9,701.5,582.9,701.5z M639.9,563.6L639.9,563.6
			L639.9,563.6L639.9,563.6z M693.1,671.3c0,0.1-0.1,0.2-0.1,0.2c0.1-0.3,0.3-0.7,0.4-1C693.3,670.8,693.2,671.1,693.1,671.3z
			 M639.9,563.6L639.9,563.6L639.9,563.6L639.9,563.6z M639.9,563.6L639.9,563.6L639.9,563.6L639.9,563.6z M693.1,671.3
			c0,0.1-0.1,0.2-0.1,0.2c0.1-0.3,0.3-0.7,0.4-1C693.3,670.8,693.2,671.1,693.1,671.3z M639.9,563.6L639.9,563.6L639.9,563.6
			L639.9,563.6z M639.9,563.6L639.9,563.6L639.9,563.6L639.9,563.6z M693.1,671.3c0,0.1-0.1,0.2-0.1,0.2c0.1-0.3,0.3-0.7,0.4-1
			C693.3,670.8,693.2,671.1,693.1,671.3z M639.9,563.6L639.9,563.6L639.9,563.6L639.9,563.6z M639.9,563.6L639.9,563.6L639.9,563.6
			L639.9,563.6z M639.9,563.6L639.9,563.6L639.9,563.6L639.9,563.6z M639.9,563.6L639.9,563.6L639.9,563.6L639.9,563.6z
			 M639.9,563.6L639.9,563.6L639.9,563.6L639.9,563.6z M851.7,519.3c-13.3-19-35.7-29.5-59.3-30.2c11.3,3.9,21.4,11.2,28.5,21.4
			c17.1,24.4,10.6,56.4-14.6,71.4c-12,7.2-25.9,9.1-39.2,6.7l-12.7-68.4l28.6-64.6l-25.4-14.7l-12.7-32.3c0,0,3.2-14.7,57.2-5.9
			c0,0,19.1,0,22.3-29.4c0,0,6.4-55.8,25.4-58.7c0,0,25.4-32.3-47.7-29.3c-73.1,2.9-82.6,35.2-82.6,35.2l-79.5-2.9l-79.5,2.9
			c0,0-9.5-32.3-82.6-35.2c-73.1-2.9-47.7,29.3-47.7,29.3c19.1,2.9,25.4,58.7,25.4,58.7c3.2,29.4,22.3,29.4,22.3,29.4
			c54-8.8,57.2,5.9,57.2,5.9l-12.7,32.3L497,455.5l28.6,64.6l-12.7,68.4c-13.2,2.5-27.2,0.5-39.2-6.7c-25.2-15-31.7-47-14.6-71.4
			c7.1-10.2,17.3-17.5,28.5-21.4c-23.7,0.8-46.1,11.3-59.3,30.2c-22.3,31.8-10.6,75.5,26.2,97.5c18.7,11.1,40.2,14.6,59.8,11.1
			l11.8,7.5c-12.6,5.2-21.4,13-22.8,24.5c0,0,0,84.2,136.7,78.9c136.7,5.3,136.7-78.9,136.7-78.9c-1.4-11.5-10.2-19.3-22.8-24.5
			l11.8-7.5c19.6,3.5,41.1,0.1,59.8-11.1C862.2,594.8,874,551.1,851.7,519.3z M639.9,488.1l22.1-15.7l-22.1,31.2l-22.1-31.2
			L639.9,488.1z M639.9,503.7l34.3-24.3l-34.3,48.4l-34.3-48.4L639.9,503.7z M566.9,426.1L566.9,426.1l31.8,23.5l0,0h-38.1v0
			l-15.9-35.2L566.9,426.1z M589.1,684.4c0,0.2,0,0.4,0,0.6c0,0.3,0,0.5,0,0.8c0,0.2,0,0.3-0.1,0.5c0,0.3-0.1,0.7-0.1,1
			c0,0,0,0.1,0,0.1c0,0.3-0.1,0.7-0.2,1c0,0.2-0.1,0.5-0.1,0.7c0,0,0,0.1,0,0.1c-0.1,0.4-0.2,0.8-0.3,1.2c-0.1,0.3-0.1,0.5-0.2,0.7
			c-0.1,0.3-0.1,0.5-0.2,0.7c-0.1,0.4-0.2,0.8-0.4,1.2c-0.1,0.4-0.3,0.8-0.4,1.1c0,0,0,0.1,0,0.1c-0.1,0.2-0.2,0.4-0.2,0.6v0
			c-0.1,0.2-0.2,0.4-0.3,0.6c0,0,0,0.1,0,0.1c-0.1,0.2-0.2,0.4-0.3,0.6c-0.1,0.2-0.2,0.4-0.3,0.6c-0.2,0.4-0.4,0.8-0.6,1.1
			c-0.2,0.3-0.4,0.6-0.6,0.9c0,0-0.1,0.1-0.1,0.1c-0.1,0.1-0.2,0.3-0.3,0.4c-0.1,0.1-0.2,0.3-0.3,0.4v0c0,0,0,0-0.1,0.1
			c0,0,0,0,0,0.1v0c0,0,0,0,0,0l0,0c0,0,0,0,0,0c0,0,0,0,0,0c0,0,0,0,0,0c0,0,0,0,0,0c0,0-0.1,0.1-0.1,0.1c0,0-0.1,0.1-0.1,0.1
			c0,0,0,0.1-0.1,0.1c0,0,0,0,0,0c0,0,0,0,0,0c-0.1,0.1-0.1,0.1-0.2,0.2v0c0,0-0.1,0.1-0.1,0.1c0,0,0,0,0,0c0,0,0,0,0,0
			c0,0.1-0.1,0.1-0.1,0.2c-0.1,0.1-0.1,0.1-0.2,0.2c-0.1,0.1-0.1,0.2-0.2,0.3v0c0,0,0,0,0,0v0c0,0,0,0,0,0c0,0,0,0,0,0.1
			c0,0-0.1,0.1-0.1,0.1c-0.1,0.1-0.1,0.2-0.2,0.2c0,0,0,0,0,0c0,0-0.1,0.1-0.1,0.1c0,0-0.1,0.1-0.1,0.1c-0.2,0.3-0.5,0.5-0.7,0.7
			c-0.1,0.1-0.1,0.1-0.2,0.2c0,0-0.1,0.1-0.1,0.1c0,0,0,0,0,0c0,0,0,0,0,0c0,0,0,0,0,0c0,0,0,0,0,0c-0.1,0.1-0.3,0.2-0.4,0.3
			c-0.5,0.4-1,0.9-1.6,1.3c-0.2,0.2-0.4,0.3-0.7,0.4c-0.1,0.1-0.3,0.2-0.4,0.3c0,0,0,0,0,0c0,0,0,0,0,0c-0.1,0-0.1,0.1-0.2,0.1
			c-0.2,0.1-0.3,0.2-0.5,0.3c-0.2,0.1-0.5,0.3-0.7,0.4c-0.2,0.1-0.4,0.2-0.6,0.3c-0.1,0-0.1,0.1-0.2,0.1c0,0,0,0,0,0
			c0,0-0.1,0-0.1,0c-0.2,0.1-0.4,0.2-0.6,0.2c0,0,0,0-0.1,0c0,0-0.1,0-0.1,0c0,0,0,0-0.1,0c0,0,0,0,0,0c0,0-0.1,0-0.1,0
			c-0.1,0-0.1,0-0.2,0c0,0,0,0-0.1,0c-0.1,0-0.3,0.1-0.4,0.1c0,0-0.1,0-0.1,0c0,0,0,0-0.1,0v0c-0.1,0-0.1,0-0.1,0c0,0-0.1,0-0.1,0
			c0,0,0,0-0.1,0c-0.1,0-0.3,0.1-0.5,0.1c0,0,0,0,0,0c0,0,0,0-0.1,0c-0.1,0-0.1,0-0.2,0c-0.2,0-0.3,0.1-0.5,0.1l-0.2,0
			c-0.2,0-0.3,0-0.5,0.1c-0.1,0-0.1,0-0.2,0c-0.1,0-0.2,0-0.3,0c-0.1,0-0.1,0-0.2,0c0,0-0.1,0-0.1,0c-0.3,0-0.6,0-0.9,0
			s-0.6,0-0.9,0c-1.1-0.1-2.3-0.3-3.3-0.6c-0.3-0.1-0.5-0.2-0.8-0.2c-0.1-0.1-0.3-0.1-0.5-0.2c-0.2-0.1-0.4-0.2-0.6-0.3
			c-0.1,0-0.2-0.1-0.2-0.1c-0.2-0.1-0.5-0.2-0.7-0.4c0,0-0.1,0-0.2-0.1c-0.1-0.1-0.2-0.1-0.3-0.2c0,0,0,0,0,0
			c-0.2-0.1-0.4-0.2-0.5-0.3c-0.1-0.1-0.2-0.2-0.4-0.2c-0.1-0.1-0.2-0.1-0.4-0.2v0c0,0-0.1,0-0.1,0c0,0,0,0,0,0s0,0,0,0
			c-0.2-0.1-0.4-0.3-0.6-0.4v0c0,0,0,0,0,0c-0.2-0.2-0.4-0.3-0.6-0.5c-0.2-0.2-0.4-0.4-0.7-0.6c0,0,0,0-0.1,0
			c-0.2-0.2-0.4-0.4-0.6-0.6c-0.2-0.2-0.4-0.4-0.6-0.6c-0.1-0.1-0.2-0.2-0.2-0.3c-0.4-0.4-0.8-0.9-1.1-1.3c-0.7-0.9-1.3-1.9-1.9-2.9
			c-2.3-4.1-3.7-9.2-3.7-14.7c0-3.6,0.6-7.1,1.7-10.2c1.9-5.7,5.5-10.3,9.8-12.7c2.3-1.3,4.9-2.1,7.6-2.1c0.3,0,0.5,0,0.8,0
			c0.1,0,0.2,0,0.4,0c0,0,0,0,0,0c0.3,0,0.5,0,0.8,0.1c0.3,0,0.6,0.1,1,0.2c0.3,0.1,0.6,0.1,0.9,0.2c0.3,0.1,0.6,0.2,0.9,0.3
			c0.3,0.1,0.6,0.2,0.9,0.3c0.6,0.3,1.2,0.5,1.8,0.8c0.3,0.2,0.6,0.3,0.8,0.5c0.2,0.1,0.4,0.3,0.6,0.4c0.1,0,0.2,0.1,0.2,0.2v0
			c0,0,0,0,0,0s0,0,0.1,0c0,0,0,0,0,0s0,0,0,0c0.1,0.1,0.2,0.1,0.3,0.2c0.1,0,0.1,0.1,0.2,0.2c0,0,0,0,0.1,0c0,0,0,0,0,0
			c0,0,0.1,0.1,0.2,0.1c0,0,0,0,0,0c0,0,0,0,0,0c0.1,0.1,0.1,0.1,0.2,0.2c0,0,0.1,0,0.1,0.1l0,0c0,0,0,0,0,0c0,0,0,0,0,0
			c0.1,0,0.1,0.1,0.1,0.1c0.1,0.1,0.1,0.1,0.2,0.2c0.1,0,0.1,0.1,0.1,0.1c0.2,0.2,0.4,0.4,0.6,0.6c0.2,0.2,0.4,0.4,0.6,0.6
			c0.1,0.1,0.2,0.2,0.2,0.3c0.1,0.2,0.3,0.3,0.4,0.4c0.1,0.2,0.3,0.3,0.4,0.5c0,0,0.1,0.1,0.1,0.2c0.2,0.3,0.4,0.5,0.6,0.8
			c0.1,0.2,0.3,0.3,0.4,0.5c0.2,0.3,0.4,0.6,0.6,0.9c0.2,0.3,0.4,0.6,0.5,0.9c0,0,0,0,0,0s0,0,0,0s0,0,0,0v0c0,0.1,0.1,0.1,0.1,0.2
			c0.1,0.2,0.2,0.4,0.3,0.6c0,0.1,0.1,0.1,0.1,0.2c0,0,0,0.1,0.1,0.1c0,0,0,0,0,0c0.1,0.2,0.2,0.4,0.3,0.6c0.1,0.2,0.2,0.4,0.3,0.6
			c0,0,0,0,0,0s0,0,0,0v0c0,0,0,0.1,0,0.1c0.1,0.3,0.2,0.5,0.3,0.8c0,0,0,0.1,0,0.1c0,0.1,0.1,0.1,0.1,0.2c0,0,0,0.1,0.1,0.1
			c0,0.1,0.1,0.2,0.1,0.3c0,0,0,0.1,0,0.1c0,0.1,0,0.1,0.1,0.2c0,0,0,0.1,0,0.1c0,0,0,0,0,0.1c0,0.1,0.1,0.2,0.1,0.3v0
			c0,0.1,0.1,0.2,0.1,0.3c0.1,0.3,0.2,0.5,0.3,0.8c0,0,0,0.1,0.1,0.2c0,0,0,0.1,0,0.1v0c0.1,0.3,0.2,0.7,0.3,1c0,0,0,0.1,0,0.1
			c0,0,0,0.1,0,0.1c0.1,0.4,0.2,0.8,0.3,1.2c0,0.2,0.1,0.5,0.1,0.7c0.1,0.3,0.1,0.7,0.2,1c0,0,0,0.1,0,0.1c0.1,0.3,0.1,0.6,0.1,1
			c0,0.2,0,0.3,0.1,0.5c0,0.3,0,0.5,0,0.8c0,0.2,0,0.4,0,0.6c0,0.5,0,0.9,0,1.4C589.1,683.5,589.1,684,589.1,684.4z M657.5,538.8
			l-17.6,78.8l0,0l-17.6-78.8L589,491.9l50.8,36.1l50.9-36.1L657.5,538.8z M725.3,697.7c-0.6,1-1.2,2-1.9,2.9
			c-0.3,0.5-0.7,0.9-1.1,1.3c-0.1,0.1-0.2,0.2-0.2,0.3c-0.6,0.7-1.3,1.3-1.9,1.8c-0.2,0.2-0.4,0.3-0.6,0.5c0,0,0,0-0.1,0v0
			c-0.2,0.2-0.4,0.3-0.6,0.4h0c0,0,0,0,0,0c0,0-0.1,0-0.1,0v0c-0.1,0.1-0.2,0.2-0.4,0.2c-0.1,0.1-0.2,0.2-0.4,0.2
			c-0.2,0.1-0.4,0.2-0.6,0.3c-0.1,0.1-0.2,0.1-0.3,0.2c0,0-0.1,0.1-0.2,0.1c-0.2,0.1-0.5,0.3-0.7,0.4c-0.2,0.1-0.3,0.1-0.5,0.2
			c-0.2,0.1-0.3,0.1-0.5,0.2c-0.2,0.1-0.4,0.1-0.6,0.2c-0.2,0.1-0.4,0.1-0.6,0.2c-1.1,0.3-2.2,0.5-3.3,0.6c-0.3,0-0.6,0-0.9,0
			c-0.1,0-0.2,0-0.3,0c-0.1,0-0.2,0-0.3,0c-0.1,0-0.3,0-0.4,0c0,0-0.1,0-0.1,0c0,0,0,0-0.1,0c-0.1,0-0.1,0-0.2,0
			c-0.2,0-0.4,0-0.7-0.1v0c0,0-0.1,0-0.1,0h0c0,0,0,0,0,0c-0.2,0-0.4-0.1-0.7-0.1c-0.1,0-0.2,0-0.2-0.1c-0.3,0-0.5-0.1-0.7-0.2
			c0,0-0.1,0-0.1,0c-0.2,0-0.3-0.1-0.5-0.1c0,0-0.1,0-0.1,0c-0.1,0-0.1,0-0.2,0c0,0-0.1,0-0.1,0c-0.2-0.1-0.4-0.1-0.6-0.2
			c0,0-0.1,0-0.1,0c0,0,0,0,0,0s0,0,0,0c0,0-0.1,0-0.1,0c0,0-0.1,0-0.1,0v0c0,0,0,0,0,0c-0.5-0.2-1.1-0.5-1.6-0.8
			c-0.2-0.1-0.3-0.2-0.5-0.3c-0.1,0-0.1-0.1-0.2-0.1c0,0,0,0,0,0c0,0,0,0-0.1,0c0,0,0,0-0.1-0.1c0,0-0.1-0.1-0.1-0.1
			c-0.1,0-0.1-0.1-0.2-0.1c-0.1,0-0.2-0.1-0.2-0.2c-0.1-0.1-0.3-0.2-0.4-0.3c-0.5-0.4-1.1-0.8-1.6-1.3c-0.2-0.2-0.4-0.4-0.6-0.6
			c-0.1,0-0.1-0.1-0.1-0.1l-0.4-0.4c-0.1-0.1-0.2-0.3-0.4-0.4l-0.1-0.1c-0.1-0.1-0.2-0.2-0.3-0.3c-0.1-0.1-0.1-0.2-0.2-0.2
			c-0.1-0.1-0.1-0.2-0.2-0.2c0,0-0.1-0.1-0.1-0.1c-0.1-0.1-0.3-0.3-0.4-0.5c0,0-0.1-0.1-0.1-0.2c-0.1-0.1-0.2-0.2-0.2-0.3
			c-0.1-0.1-0.2-0.2-0.2-0.3c0,0,0,0,0,0c0-0.1-0.1-0.1-0.1-0.2c0-0.1-0.1-0.1-0.1-0.2c-0.1-0.2-0.2-0.3-0.3-0.5c0,0,0-0.1-0.1-0.1
			c0,0-0.1-0.1-0.1-0.1c-0.1-0.1-0.2-0.2-0.2-0.3c-0.1-0.1-0.2-0.3-0.2-0.4c-0.1-0.1-0.2-0.3-0.2-0.4c0,0,0,0-0.1-0.1
			c0-0.1-0.1-0.1-0.1-0.2c-0.1-0.1-0.1-0.3-0.2-0.4c0,0-0.1-0.1-0.1-0.1h0c-0.2-0.3-0.3-0.6-0.4-0.9c-0.2-0.4-0.3-0.8-0.5-1.2
			c0,0,0,0,0,0c-0.2-0.4-0.3-0.8-0.5-1.3c0,0,0-0.1,0-0.1c-0.1-0.2-0.2-0.4-0.2-0.6c0-0.1,0-0.1-0.1-0.2h0c0-0.1-0.1-0.2-0.1-0.3
			c0,0,0,0,0,0c-0.1-0.2-0.1-0.4-0.2-0.5c0,0,0-0.1,0-0.1c0,0,0,0,0-0.1c0,0,0,0,0-0.1c-0.1-0.2-0.1-0.3-0.1-0.5
			c0-0.2-0.1-0.3-0.1-0.5c0,0,0-0.1,0-0.1h0c-0.1-0.3-0.1-0.6-0.2-0.9c0,0,0,0,0,0c0-0.1,0-0.2-0.1-0.3c0-0.1,0-0.2-0.1-0.2
			c0-0.2-0.1-0.4-0.1-0.6c0-0.1,0-0.2-0.1-0.3c0,0,0-0.1,0-0.1c0-0.2-0.1-0.4-0.1-0.7c0,0,0-0.1,0-0.1c0-0.1,0-0.2,0-0.3
			c0,0,0-0.1,0-0.1c0,0,0,0,0-0.1v0c0,0,0,0,0-0.1c0-0.2-0.1-0.5-0.1-0.7c0-0.1,0-0.1,0-0.2v-0.1c0-0.1,0-0.2,0-0.2
			c0-0.2,0-0.5-0.1-0.7c0,0,0,0,0,0v-0.2c0-0.1,0-0.2,0-0.4v0c0,0,0,0,0,0c0-0.3,0-0.7,0-1c0-0.2,0-0.3,0-0.5c0-0.2,0-0.3,0-0.5
			c0-0.1,0-0.2,0-0.3v-0.1c0-0.2,0-0.3,0-0.5c0-0.2,0-0.4,0-0.7c0.1-0.8,0.2-1.7,0.3-2.5c0.1-0.4,0.1-0.7,0.2-1.1c0,0,0-0.1,0-0.1h0
			c0-0.1,0-0.2,0.1-0.3c0-0.1,0-0.2,0.1-0.3c0-0.2,0.1-0.4,0.1-0.6c0.1-0.3,0.1-0.5,0.2-0.7c0,0,0,0,0,0c0-0.1,0.1-0.2,0.1-0.3
			c0,0,0,0,0,0c0,0,0,0,0,0c0,0,0,0,0-0.1c0-0.1,0-0.2,0.1-0.3c0-0.2,0.1-0.3,0.1-0.4c0,0,0,0,0,0v0c0,0,0-0.1,0-0.1
			c0-0.1,0-0.1,0.1-0.2c0.1-0.4,0.3-0.7,0.4-1.1c0.1-0.1,0.1-0.3,0.2-0.4c0,0,0,0,0-0.1c0,0,0,0,0,0c0,0,0,0,0-0.1c0,0,0,0,0,0
			c0.1-0.3,0.3-0.7,0.4-1c0.1-0.2,0.1-0.3,0.2-0.5c0.1-0.1,0.2-0.3,0.2-0.5c0-0.1,0.1-0.2,0.1-0.2c0,0,0.1-0.1,0.1-0.1
			c0.1-0.2,0.2-0.5,0.4-0.7c0,0,0-0.1,0.1-0.1c0-0.1,0.1-0.1,0.1-0.1c0.1-0.2,0.2-0.4,0.3-0.6c0-0.1,0.1-0.1,0.1-0.2
			c0.1-0.2,0.2-0.3,0.3-0.5h0c0,0,0-0.1,0.1-0.1c0,0,0-0.1,0.1-0.1c0,0,0,0,0,0c0,0,0,0,0,0c0.1-0.2,0.3-0.4,0.4-0.6
			c0,0,0.1-0.1,0.1-0.1h0c0,0,0,0,0,0c0,0,0,0,0,0c0.1-0.1,0.2-0.3,0.3-0.4c0.1-0.1,0.2-0.3,0.3-0.4h0c0,0,0,0,0-0.1c0,0,0,0,0,0
			c0,0,0.1-0.1,0.1-0.1c0.1-0.2,0.2-0.3,0.4-0.5s0.2-0.3,0.4-0.4c0-0.1,0.1-0.1,0.1-0.2c0.2-0.2,0.3-0.3,0.4-0.5
			c0.9-1,1.8-1.8,2.9-2.5c0,0,0.1,0,0.1-0.1c0.1-0.1,0.1-0.1,0.2-0.2c0.1-0.1,0.2-0.1,0.3-0.2c0.1-0.1,0.2-0.2,0.3-0.2
			c0.1-0.1,0.3-0.2,0.4-0.3c0.2-0.1,0.3-0.2,0.5-0.3c0.5-0.3,1.1-0.6,1.6-0.8c0.2-0.1,0.4-0.2,0.6-0.2c0,0,0.1,0,0.1,0
			c0.1,0,0.3-0.1,0.4-0.1c0,0,0,0,0,0c0,0,0,0,0,0c0.1,0,0.2-0.1,0.3-0.1c0.1-0.1,0.3-0.1,0.4-0.1c0.3-0.1,0.6-0.2,0.9-0.2
			c0,0,0,0,0,0c0.3-0.1,0.6-0.1,0.8-0.1c0.1,0,0.2,0,0.2,0c0.3,0,0.5-0.1,0.8-0.1c0.3,0,0.7,0,1,0c2.7,0,5.3,0.7,7.6,2.1
			c4.4,2.5,7.9,7,9.8,12.7c1.1,3.1,1.7,6.5,1.7,10.2C729,688.5,727.6,693.6,725.3,697.7z M719.5,449.6L719.5,449.6l-38.2,0l0,0
			l31.8-23.5v0l22.3-11.7L719.5,449.6z M639.9,563.6L639.9,563.6L639.9,563.6L639.9,563.6z M639.9,563.6L639.9,563.6L639.9,563.6
			L639.9,563.6z M639.9,563.6L639.9,563.6L639.9,563.6L639.9,563.6z M639.9,563.6L639.9,563.6L639.9,563.6L639.9,563.6z
			 M693.1,671.3c0,0.1-0.1,0.2-0.1,0.2c0.1-0.3,0.3-0.7,0.4-1C693.3,670.8,693.2,671.1,693.1,671.3z M639.9,563.6L639.9,563.6
			L639.9,563.6L639.9,563.6z M639.9,563.6L639.9,563.6L639.9,563.6L639.9,563.6z M693.1,671.3c0,0.1-0.1,0.2-0.1,0.2
			c0.1-0.3,0.3-0.7,0.4-1C693.3,670.8,693.2,671.1,693.1,671.3z M639.9,563.6L639.9,563.6L639.9,563.6L639.9,563.6z M639.9,563.6
			L639.9,563.6L639.9,563.6L639.9,563.6z M693.1,671.3c0,0.1-0.1,0.2-0.1,0.2c0.1-0.3,0.3-0.7,0.4-1
			C693.3,670.8,693.2,671.1,693.1,671.3z M639.9,563.6L639.9,563.6L639.9,563.6L639.9,563.6z M639.9,563.6L639.9,563.6L639.9,563.6
			L639.9,563.6z M639.9,563.6L639.9,563.6L639.9,563.6L639.9,563.6z"/>
		<polygon class="st0" points="713.1,426.1 713.1,426.1 681.3,449.6 		"/>
		<path class="st0" d="M693.1,671.3c0.1-0.3,0.2-0.5,0.3-0.8c-0.1,0.3-0.3,0.7-0.4,1C693,671.5,693,671.4,693.1,671.3z"/>
		<path class="st0" d="M700.9,661c0,0,0.1-0.1,0.1-0.1C701,661,700.9,661,700.9,661c-0.1,0.1-0.1,0.1-0.2,0.1
			C700.8,661.1,700.9,661,700.9,661z"/>
	</g>
	<polygon class="st0" points="639.9,563.6 639.9,563.6 639.9,563.6 	"/>
	<polygon class="st0" points="639.9,617.5 639.9,617.6 639.9,617.6 639.9,617.6 	"/>
	<polygon class="st0" points="639.9,563.6 639.9,563.6 639.9,563.6 	"/>
</g>
</svg>
